<svg ed:vSpacing="30" viewBox="0 0 613 1600" xmlns:xlink="http://www.w3.org/1999/xlink" ed:hSpacing="30" width="613" id="page100" xmlns="http://www.w3.org/2000/svg" height="1600" xmlns:ed="https://www.edrawsoft.cn//xml/2017/SVGExtensions/" ed:name="Page-1" xmlns:ev="http://www.w3.org/2001/xml-events"><style type="text/css"><![CDATA[
g[ed\:togtopicid],g[ed\:hyperlink],g[ed\:comment],g[ed\:note] {cursor:pointer;}
g[id] {-moz-user-select: none;-ms-user-select: none;user-select: none;}
svg text::selection,svg tspan::selection{background-color: #4285f4;color: #ffffff;fill: #ffffff;}
.st2 {fill:#ffffff;font-family:微软雅黑;font-size:11pt}
.st1 {fill:#ffffff;font-family:微软雅黑;font-size:14pt}
]]></style><defs><linearGradient y1="0%" x1="0%" y2="100%" id="lg1" x2="0%"><stop offset="0" stop-color="#ffffff"/><stop offset="0.25" stop-color="#f0f5f0"/><stop offset="0.75" stop-color="#e1ebe1"/><stop offset="1" stop-color="#c8d7c8"/></linearGradient></defs><rect x="0" width="613" fill="#ffffff" height="1600" y="0"/><g id="106" ed:type="relation" ed:toid="101" ed:fromid="102" transform="matrix(1,0,0,1,251,315)"><path fill="none" d="M34.2,-27.6C-8.1,16.6,8.1,-16.6,-34.2,27.6"/><path stroke="#f38590" stroke-linecap="round" fill="none" stroke-linejoin="round" d="M34.2,-27.6C-6.6,15.1,7,-14.5,-30.1,23.4"/><path stroke-width="1" stroke="#f38590" stroke-linecap="round" fill="#f38590" d="M-34.2,27.6L-26.5,25.4C-27.8,25.1,-29.1,24.4,-30.1,23.4C-31.2,22.4,-31.9,21.1,-32.3,19.8L-34.2,27.6"/></g><g id="107" ed:type="relation" ed:toid="102" ed:fromid="104" transform="matrix(1,0,0,1,361,228)"><path fill="none" d="M25.7,-28.3C-27.2,-6.5,27.2,6.5,-25.7,28.3"/><path stroke="#f38590" stroke-linecap="round" fill="none" stroke-linejoin="round" d="M25.7,-28.3C-25.3,-7.3,23.4,5.6,-20.3,25.9"/><path stroke-width="1" stroke="#f38590" stroke-linecap="round" fill="#f38590" d="M-25.7,28.3L-17.8,29.2C-18.8,28.3,-19.7,27.3,-20.3,25.9C-20.9,24.6,-21.1,23.2,-20.9,21.8L-25.7,28.3"/></g><g id="112" ed:type="relation" ed:toid="104" ed:fromid="109" transform="matrix(1,0,0,1,467,161)"><path fill="none" d="M13.3,-17.7C-31.2,-8.8,31.2,8.8,-13.3,17.7"/><path stroke="#f38590" stroke-linecap="round" fill="none" stroke-linejoin="round" d="M13.3,-17.7C-29,-9.2,25.4,7.1,-7.6,16.4"/><path stroke-width="1" stroke="#f38590" stroke-linecap="round" fill="#f38590" d="M-13.3,17.7L-5.6,20C-6.6,19,-7.3,17.8,-7.6,16.4C-7.9,14.9,-7.9,13.5,-7.5,12.2L-13.3,17.7"/></g><g id="113" ed:type="relation" ed:toid="108" ed:fromid="104" transform="matrix(1,0,0,1,329,186)"><path fill="none" d="M57.7,-11.1C-7.4,-33.2,7.4,33.2,-57.7,11.1"/><path stroke="#f38590" stroke-linecap="round" fill="none" stroke-linejoin="round" d="M57.7,-11.1C-5.5,-32.5,6.6,29.3,-52.1,12.8"/><path stroke-width="1" stroke="#f38590" stroke-linecap="round" fill="#f38590" d="M-57.7,11.1L-52.3,17C-52.6,15.6,-52.5,14.2,-52.1,12.8C-51.7,11.4,-50.9,10.2,-49.9,9.3L-57.7,11.1"/></g><g id="115" ed:type="relation" ed:toid="108" ed:fromid="114" transform="matrix(1,0,0,1,239,153)"><path fill="none" d="M-7.9,-15.6C-15.2,0.6,15.2,-0.6,7.9,15.6"/><path stroke="#f38590" stroke-linecap="round" fill="none" stroke-linejoin="round" d="M-7.9,-15.6C-14.3,-1.5,7.7,-0.6,9,9.9"/><path stroke-width="1" stroke="#f38590" stroke-linecap="round" fill="#f38590" d="M7.9,15.6L13.2,9.5C11.9,10,10.5,10.1,9,9.8C7.6,9.6,6.3,8.9,5.3,8L7.9,15.6"/></g><g id="122" ed:type="relation" ed:toid="116" ed:fromid="119" transform="matrix(1,0,0,1,298,661)"><path fill="none" d="M67.4,-7C25.1,37.2,-25.1,-37.2,-67.4,7"/><path stroke="#f38590" stroke-linecap="round" fill="none" stroke-linejoin="round" d="M67.4,-7C26.5,35.7,-21.8,-32.4,-63.1,3"/><path stroke-width="1" stroke="#f38590" stroke-linecap="round" fill="#f38590" d="M-67.4,7L-59.6,5.1C-60.9,4.7,-62.1,4,-63.1,3C-64.1,1.9,-64.8,0.7,-65.1,-0.7L-67.4,7"/></g><g id="123" ed:type="relation" ed:toid="119" ed:fromid="120" transform="matrix(1,0,0,1,413,605)"><path fill="none" d="M-2.7,-17.8C-55.6,4,55.6,-4,2.7,17.8"/><path stroke="#f38590" stroke-linecap="round" fill="none" stroke-linejoin="round" d="M-2.7,-17.8C-53.6,3.1,47.3,-3.4,8.1,15.4"/><path stroke-width="1" stroke="#f38590" stroke-linecap="round" fill="#f38590" d="M2.7,17.8L10.7,18.6C9.6,17.8,8.6,16.7,8.1,15.4C7.5,14.1,7.3,12.7,7.4,11.3L2.7,17.8"/></g><g id="124" ed:type="relation" ed:toid="120" ed:fromid="121" transform="matrix(1,0,0,1,490,531)"><path fill="none" d="M13.3,-35.7C-31.2,-26.8,31.2,26.8,-13.3,35.7"/><path stroke="#f38590" stroke-linecap="round" fill="none" stroke-linejoin="round" d="M13.3,-35.7C-29,-27.2,25.5,21.8,-7.7,34.1"/><path stroke-width="1" stroke="#f38590" stroke-linecap="round" fill="#f38590" d="M-13.3,35.7L-5.6,37.7C-6.5,36.7,-7.3,35.5,-7.7,34.1C-8,32.7,-8,31.3,-7.7,30L-13.3,35.7"/></g><g id="125" ed:type="relation" ed:toid="117" ed:fromid="120" transform="matrix(1,0,0,1,371,557)"><path fill="none" d="M38.9,4.7C-26.2,-17.4,26.2,17.4,-38.9,-4.7"/><path stroke="#f38590" stroke-linecap="round" fill="none" stroke-linejoin="round" d="M38.9,4.7C-24.3,-16.7,23.2,15.3,-33.3,-2.9"/><path stroke-width="1" stroke="#f38590" stroke-linecap="round" fill="#f38590" d="M-38.9,-4.7L-33.6,1.3C-33.9,-0.1,-33.8,-1.5,-33.3,-2.9C-32.9,-4.3,-32.1,-5.4,-31.1,-6.3L-38.9,-4.7"/></g><g id="126" ed:type="relation" ed:toid="116" ed:fromid="118" transform="matrix(1,0,0,1,167,649)"><path fill="none" d="M-54.7,-19.3C-62,-3.1,62,3.1,54.7,19.3"/><path stroke="#f38590" stroke-linecap="round" fill="none" stroke-linejoin="round" d="M-54.7,-19.3C-61.2,-4.8,36.5,1.6,52.8,14.3"/><path stroke-width="1" stroke="#f38590" stroke-linecap="round" fill="#f38590" d="M54.7,19.3L55.9,11.4C55.1,12.5,53.9,13.3,52.6,13.9C51.2,14.4,49.8,14.5,48.5,14.3L54.7,19.3"/></g><g id="136" ed:type="relation" ed:toid="131" ed:fromid="133" transform="matrix(1,0,0,1,344,1047)"><path fill="none" d="M44,-14.1C1.7,30.1,-1.7,-30.1,-44,14.1"/><path stroke="#f38590" stroke-linecap="round" fill="none" stroke-linejoin="round" d="M44,-14.1C3.1,28.6,-1.4,-26.2,-39.8,10"/><path stroke-width="1" stroke="#f38590" stroke-linecap="round" fill="#f38590" d="M-44,14.1L-36.2,12.1C-37.6,11.7,-38.8,11,-39.8,10C-40.8,8.9,-41.5,7.7,-41.9,6.4L-44,14.1"/></g><g id="137" ed:type="relation" ed:toid="133" ed:fromid="134" transform="matrix(1,0,0,1,443,971)"><path fill="none" d="M4.9,-30.7C-48,-8.9,48,8.9,-4.9,30.7"/><path stroke="#f38590" stroke-linecap="round" fill="none" stroke-linejoin="round" d="M4.9,-30.7C-46,-9.8,41,7.6,0.4,28.2"/><path stroke-width="1" stroke="#f38590" stroke-linecap="round" fill="#f38590" d="M-4.9,30.7L3.1,31.4C2,30.6,1,29.6,0.4,28.2C-0.2,26.9,-0.4,25.5,-0.2,24.1L-4.9,30.7"/></g><g id="138" ed:type="relation" ed:toid="134" ed:fromid="135" transform="matrix(1,0,0,1,520,889)"><path fill="none" d="M4.9,-31.1C-39.6,-22.2,39.6,22.2,-4.9,31.1"/><path stroke="#f38590" stroke-linecap="round" fill="none" stroke-linejoin="round" d="M4.9,-31.1C-37.4,-22.6,32.1,18,0.7,29.6"/><path stroke-width="1" stroke="#f38590" stroke-linecap="round" fill="#f38590" d="M-4.9,31.1L2.8,33.1C1.9,32.2,1.1,31,0.7,29.5C0.4,28.1,0.4,26.7,0.7,25.4L-4.9,31.1"/></g><g id="139" ed:type="relation" ed:toid="132" ed:fromid="134" transform="matrix(1,0,0,1,382,900)"><path fill="none" d="M66.5,15.1C1.4,-7,-1.4,7,-66.5,-15.1"/><path stroke="#f38590" stroke-linecap="round" fill="none" stroke-linejoin="round" d="M66.5,15.1C3.3,-6.3,-1.1,6.2,-60.9,-13.3"/><path stroke-width="1" stroke="#f38590" stroke-linecap="round" fill="#f38590" d="M-66.5,-15.1L-61.2,-9.1C-61.5,-10.5,-61.4,-11.9,-60.9,-13.3C-60.5,-14.7,-59.7,-15.8,-58.7,-16.7L-66.5,-15.1"/></g><g id="140" ed:type="relation" ed:toid="141" ed:fromid="130" transform="matrix(1,0,0,1,99,1123)"><path fill="none" d="M-47.7,-26.9C-55,-10.7,55,10.7,47.7,26.9"/><path stroke="#f38590" stroke-linecap="round" fill="none" stroke-linejoin="round" d="M-47.7,-26.9C-54.3,-12.4,33,6.2,46.4,21.6"/><path stroke-width="1" stroke="#f38590" stroke-linecap="round" fill="#f38590" d="M47.7,26.9L49.9,19.2C48.9,20.1,47.7,20.9,46.3,21.2C44.9,21.6,43.4,21.5,42.1,21.2L47.7,26.9"/></g><g id="142" ed:type="relation" ed:toid="141" ed:fromid="132" transform="matrix(1,0,0,1,211,1021)"><path fill="none" d="M56.3,-129.2C-30.2,-34.4,30.2,34.4,-56.3,129.2"/><path stroke="#f38590" stroke-linecap="round" fill="none" stroke-linejoin="round" d="M56.3,-129.2C-28.8,-35.8,28.3,32.2,-52.4,124.8"/><path stroke-width="1" stroke="#f38590" stroke-linecap="round" fill="#f38590" d="M-56.3,129.2L-48.8,126.7C-50.1,126.4,-51.4,125.8,-52.4,124.8C-53.5,123.9,-54.3,122.7,-54.7,121.4L-56.3,129.2"/></g><g id="143" ed:type="relation" ed:toid="141" ed:fromid="131" transform="matrix(1,0,0,1,225,1120)"><path fill="none" d="M18.7,-32.8C-17.2,-25,17.2,25,-18.7,32.8"/><path stroke="#f38590" stroke-linecap="round" fill="none" stroke-linejoin="round" d="M18.7,-32.8C-15.1,-25.5,13.4,19.3,-13.1,31.1"/><path stroke-width="1" stroke="#f38590" stroke-linecap="round" fill="#f38590" d="M-18.7,32.8L-10.9,34.5C-11.9,33.6,-12.7,32.4,-13.1,31C-13.6,29.7,-13.6,28.2,-13.3,26.9L-18.7,32.8"/></g><g id="152" ed:type="relation" ed:toid="146" ed:fromid="148" transform="matrix(1,0,0,1,330,1476)"><path fill="none" d="M42.6,-17.7C0.3,26.5,-0.3,-26.5,-42.6,17.7"/><path stroke="#f38590" stroke-linecap="round" fill="none" stroke-linejoin="round" d="M42.6,-17.7C1.7,25,-0.2,-23,-38.4,13.6"/><path stroke-width="1" stroke="#f38590" stroke-linecap="round" fill="#f38590" d="M-42.6,17.7L-34.8,15.6C-36.2,15.3,-37.4,14.6,-38.4,13.6C-39.5,12.5,-40.2,11.3,-40.5,10L-42.6,17.7"/></g><g id="153" ed:type="relation" ed:toid="148" ed:fromid="150" transform="matrix(1,0,0,1,422,1401)"><path fill="none" d="M-1.5,-25.5C-54.4,-3.7,54.4,3.7,1.5,25.5"/><path stroke="#f38590" stroke-linecap="round" fill="none" stroke-linejoin="round" d="M-1.5,-25.5C-52.4,-4.6,46.4,3.2,6.8,23"/><path stroke-width="1" stroke="#f38590" stroke-linecap="round" fill="#f38590" d="M1.5,25.5L9.5,26.3C8.4,25.5,7.4,24.4,6.8,23C6.2,21.7,6,20.3,6.2,19L1.5,25.5"/></g><g id="154" ed:type="relation" ed:toid="150" ed:fromid="151" transform="matrix(1,0,0,1,504,1341)"><path fill="none" d="M16.5,-14.7C-28,-5.8,28,5.8,-16.5,14.7"/><path stroke="#f38590" stroke-linecap="round" fill="none" stroke-linejoin="round" d="M16.5,-14.7C-25.8,-6.2,22.8,4.7,-10.8,13.4"/><path stroke-width="1" stroke="#f38590" stroke-linecap="round" fill="#f38590" d="M-16.5,14.7L-8.9,17.1C-9.8,16.1,-10.5,14.8,-10.8,13.4C-11.1,12,-11,10.6,-10.6,9.3L-16.5,14.7"/></g><g id="156" ed:type="relation" ed:toid="149" ed:fromid="147" transform="matrix(1,0,0,1,109,1508)"><path fill="none" d="M-40.4,-36C-47.7,-19.8,47.7,19.8,40.4,36"/><path stroke="#f38590" stroke-linecap="round" fill="none" stroke-linejoin="round" d="M-40.4,-36C-47,-21.4,29.5,12,39.7,30.4"/><path stroke-width="1" stroke="#f38590" stroke-linecap="round" fill="#f38590" d="M40.4,36L43.5,28.6C42.4,29.4,41.1,30,39.6,30.2C38.2,30.4,36.8,30.2,35.5,29.6L40.4,36"/></g><g id="158" ed:type="relation" ed:toid="149" ed:fromid="146" transform="matrix(1,0,0,1,220,1533)"><path fill="none" d="M11.1,-13.5C-24.8,-5.7,24.8,5.7,-11,13.5"/><path stroke="#f38590" stroke-linecap="round" fill="none" stroke-linejoin="round" d="M11.1,-13.5C-22.6,-6.2,19.1,4.3,-5.4,12.1"/><path stroke-width="1" stroke="#f38590" stroke-linecap="round" fill="#f38590" d="M-11,13.5L-3.3,15.7C-4.3,14.7,-5,13.5,-5.4,12.1C-5.7,10.6,-5.7,9.2,-5.4,7.9L-11,13.5"/></g><g id="101" ed:topictype="mainidea" ed:width="169.8" ed:layout="map" ed:height="56" transform="matrix(1,0,0,1,105,343)"><path stroke-width="3" stroke="#435fbc" fill="#435fbc" stroke-linejoin="round" d="M4,0L165.8,0C168.5,0,169.8,1.3,169.8,4L169.8,52C169.8,54.7,168.5,56,165.8,56L4,56C1.3,56,0,54.7,0,52L0,4C0,1.3,1.3,0,4,0z"/><text class="st1"><tspan x="21" style="white-space:pre" y="34.3">master(v2.5.1)</tspan></text></g><g id="102" ed:topictype="mainidea" ed:width="67" ed:layout="rightmap" ed:height="35.2" transform="matrix(1,0,0,1,268,252)"><path stroke="#f38590" fill="#f38590" stroke-linejoin="round" d="M4,0L63,0C65.7,0,67,1.3,67,4L67,31.2C67,33.9,65.7,35.2,63,35.2L4,35.2C1.3,35.2,0,33.9,0,31.2L0,4C0,1.3,1.3,0,4,0z"/><text class="st2"><tspan x="18" style="white-space:pre" y="22.3">v2.4</tspan></text></g><g id="104" ed:topictype="mainidea" ed:width="67" ed:layout="rightmap" ed:height="35.2" transform="matrix(1,0,0,1,387,168)"><path stroke="#f38590" fill="#f38590" stroke-linejoin="round" d="M4,0L63,0C65.7,0,67,1.3,67,4L67,31.2C67,33.9,65.7,35.2,63,35.2L4,35.2C1.3,35.2,0,33.9,0,31.2L0,4C0,1.3,1.3,0,4,0z"/><text class="st2"><tspan x="18" style="white-space:pre" y="22.3">v2.3</tspan></text></g><g id="108" ed:topictype="mainidea" ed:width="63.8" ed:layout="rightmap" ed:height="35.2" transform="matrix(1,0,0,1,207,168)"><path stroke="#f38590" fill="#f08300" stroke-linejoin="round" d="M4,0L59.8,0C62.5,0,63.8,1.3,63.8,4L63.8,31.2C63.8,33.9,62.5,35.2,59.8,35.2L4,35.2C1.3,35.2,0,33.9,0,31.2L0,4C0,1.3,1.3,0,4,0z"/><text class="st2"><tspan x="18" style="white-space:pre" y="22.3">dev</tspan></text></g><g id="109" ed:topictype="mainidea" ed:width="67" ed:layout="rightmap" ed:height="35.2" transform="matrix(1,0,0,1,480,119)"><path stroke="#f38590" fill="#f38590" stroke-linejoin="round" d="M4,0L63,0C65.7,0,67,1.3,67,4L67,31.2C67,33.9,65.7,35.2,63,35.2L4,35.2C1.3,35.2,0,33.9,0,31.2L0,4C0,1.3,1.3,0,4,0z"/><text class="st2"><tspan x="18" style="white-space:pre" y="22.3">v2.2</tspan></text></g><g id="114" ed:topictype="mainidea" ed:width="75.8" ed:layout="rightmap" ed:height="35.2" transform="matrix(1,0,0,1,201,102)"><path stroke="#f38590" fill="#00ae9d" stroke-linejoin="round" d="M4,0L71.8,0C74.5,0,75.8,1.3,75.8,4L75.8,31.2C75.8,33.9,74.5,35.2,71.8,35.2L4,35.2C1.3,35.2,0,33.9,0,31.2L0,4C0,1.3,1.3,0,4,0z"/><text class="st2"><tspan x="18" style="white-space:pre" y="22.3">Head</tspan></text></g><g id="116" ed:topictype="mainidea" ed:width="135.8" ed:layout="map" ed:height="35.2" transform="matrix(1,0,0,1,145,668)"><path stroke="#f38590" fill="#f38590" stroke-linejoin="round" d="M4,0L131.8,0C134.5,0,135.8,1.3,135.8,4L135.8,31.2C135.8,33.9,134.5,35.2,131.8,35.2L4,35.2C1.3,35.2,0,33.9,0,31.2L0,4C0,1.3,1.3,0,4,0z"/><text class="st2"><tspan x="18" style="white-space:pre" y="22.3">master(v2.5.1)</tspan></text></g><g id="117" ed:topictype="mainidea" ed:width="63.8" ed:layout="rightmap" ed:height="35.2" transform="matrix(1,0,0,1,268,524)"><path stroke="#f38590" fill="#f08300" stroke-linejoin="round" d="M4,0L59.8,0C62.5,0,63.8,1.3,63.8,4L63.8,31.2C63.8,33.9,62.5,35.2,59.8,35.2L4,35.2C1.3,35.2,0,33.9,0,31.2L0,4C0,1.3,1.3,0,4,0z"/><text class="st2"><tspan x="18" style="white-space:pre" y="22.3">dev</tspan></text></g><g id="118" ed:topictype="mainidea" ed:width="75.8" ed:layout="leftmap" ed:height="35.2" transform="matrix(1,0,0,1,82,594)"><path stroke="#f38590" fill="#00ae9d" stroke-linejoin="round" d="M4,0L71.8,0C74.5,0,75.8,1.3,75.8,4L75.8,31.2C75.8,33.9,74.5,35.2,71.8,35.2L4,35.2C1.3,35.2,0,33.9,0,31.2L0,4C0,1.3,1.3,0,4,0z"/><text class="st2"><tspan x="18" style="white-space:pre" y="22.3">Head</tspan></text></g><g id="119" ed:topictype="mainidea" ed:width="67" ed:layout="rightmap" ed:height="35.2" transform="matrix(1,0,0,1,348,619)"><path stroke="#f38590" fill="#f38590" stroke-linejoin="round" d="M4,0L63,0C65.7,0,67,1.3,67,4L67,31.2C67,33.9,65.7,35.2,63,35.2L4,35.2C1.3,35.2,0,33.9,0,31.2L0,4C0,1.3,1.3,0,4,0z"/><text class="st2"><tspan x="18" style="white-space:pre" y="22.3">v2.4</tspan></text></g><g id="120" ed:topictype="mainidea" ed:width="67" ed:layout="rightmap" ed:height="35.2" transform="matrix(1,0,0,1,410,556)"><path stroke="#f38590" fill="#f38590" stroke-linejoin="round" d="M4,0L63,0C65.7,0,67,1.3,67,4L67,31.2C67,33.9,65.7,35.2,63,35.2L4,35.2C1.3,35.2,0,33.9,0,31.2L0,4C0,1.3,1.3,0,4,0z"/><text class="st2"><tspan x="18" style="white-space:pre" y="22.3">v2.3</tspan></text></g><g id="121" ed:topictype="mainidea" ed:width="67" ed:layout="rightmap" ed:height="35.2" transform="matrix(1,0,0,1,503,471)"><path stroke="#f38590" fill="#f38590" stroke-linejoin="round" d="M4,0L63,0C65.7,0,67,1.3,67,4L67,31.2C67,33.9,65.7,35.2,63,35.2L4,35.2C1.3,35.2,0,33.9,0,31.2L0,4C0,1.3,1.3,0,4,0z"/><text class="st2"><tspan x="18" style="white-space:pre" y="22.3">v2.2</tspan></text></g><g id="127" ed:topictype="mainidea" ed:width="157.4" ed:layout="rightmap" ed:height="35.2" transform="matrix(1,0,0,1,257,21)"><path stroke="#f38590" fill="#674196" stroke-linejoin="round" d="M4,0L153.4,0C156.1,0,157.4,1.3,157.4,4L157.4,31.2C157.4,33.9,156.1,35.2,153.4,35.2L4,35.2C1.3,35.2,0,33.9,0,31.2L0,4C0,1.3,1.3,0,4,0z"/><text class="st2"><tspan x="18" style="white-space:pre" y="22.3">第一步:创建并修改</tspan></text></g><g id="128" ed:topictype="mainidea" ed:width="172.6" ed:layout="rightmap" ed:height="35.2" transform="matrix(1,0,0,1,250,430)"><path stroke="#f38590" fill="#745398" stroke-linejoin="round" d="M4,0L168.6,0C171.3,0,172.6,1.3,172.6,4L172.6,31.2C172.6,33.9,171.3,35.2,168.6,35.2L4,35.2C1.3,35.2,0,33.9,0,31.2L0,4C0,1.3,1.3,0,4,0z"/><text class="st2"><tspan x="18" style="white-space:pre" y="22.3">第二步：回到master</tspan></text></g><g id="129" ed:topictype="mainidea" ed:width="211.8" ed:layout="rightmap" ed:height="35.2" transform="matrix(1,0,0,1,218,765)"><path stroke="#f38590" fill="#674196" stroke-linejoin="round" d="M4,0L207.8,0C210.5,0,211.8,1.3,211.8,4L211.8,31.2C211.8,33.9,210.5,35.2,207.8,35.2L4,35.2C1.3,35.2,0,33.9,0,31.2L0,4C0,1.3,1.3,0,4,0z"/><text class="st2"><tspan x="18" style="white-space:pre" y="22.3">第三步：合并dev到master</tspan></text></g><g id="130" ed:topictype="mainidea" ed:width="75.8" ed:layout="leftmap" ed:height="35.2" transform="matrix(1,0,0,1,21,1061)"><path stroke="#f38590" fill="#00ae9d" stroke-linejoin="round" d="M4,0L71.8,0C74.5,0,75.8,1.3,75.8,4L75.8,31.2C75.8,33.9,74.5,35.2,71.8,35.2L4,35.2C1.3,35.2,0,33.9,0,31.2L0,4C0,1.3,1.3,0,4,0z"/><text class="st2"><tspan x="18" style="white-space:pre" y="22.3">Head</tspan></text></g><g id="131" ed:topictype="mainidea" ed:width="79" ed:layout="map" ed:height="35.2" transform="matrix(1,0,0,1,244,1061)"><path stroke="#f38590" fill="#f38590" stroke-linejoin="round" d="M4,0L75,0C77.7,0,79,1.3,79,4L79,31.2C79,33.9,77.7,35.2,75,35.2L4,35.2C1.3,35.2,0,33.9,0,31.2L0,4C0,1.3,1.3,0,4,0z"/><text class="st2"><tspan x="18" style="white-space:pre" y="22.3">v2.5.1</tspan></text></g><g id="132" ed:topictype="mainidea" ed:width="63.8" ed:layout="rightmap" ed:height="35.2" transform="matrix(1,0,0,1,251,857)"><path stroke="#f38590" fill="#f08300" stroke-linejoin="round" d="M4,0L59.8,0C62.5,0,63.8,1.3,63.8,4L63.8,31.2C63.8,33.9,62.5,35.2,59.8,35.2L4,35.2C1.3,35.2,0,33.9,0,31.2L0,4C0,1.3,1.3,0,4,0z"/><text class="st2"><tspan x="18" style="white-space:pre" y="22.3">dev</tspan></text></g><g id="133" ed:topictype="mainidea" ed:width="67" ed:layout="rightmap" ed:height="35.2" transform="matrix(1,0,0,1,371,998)"><path stroke="#f38590" fill="#f38590" stroke-linejoin="round" d="M4,0L63,0C65.7,0,67,1.3,67,4L67,31.2C67,33.9,65.7,35.2,63,35.2L4,35.2C1.3,35.2,0,33.9,0,31.2L0,4C0,1.3,1.3,0,4,0z"/><text class="st2"><tspan x="18" style="white-space:pre" y="22.3">v2.4</tspan></text></g><g id="134" ed:topictype="mainidea" ed:width="67" ed:layout="rightmap" ed:height="35.2" transform="matrix(1,0,0,1,448,909)"><path stroke="#f38590" fill="#f38590" stroke-linejoin="round" d="M4,0L63,0C65.7,0,67,1.3,67,4L67,31.2C67,33.9,65.7,35.2,63,35.2L4,35.2C1.3,35.2,0,33.9,0,31.2L0,4C0,1.3,1.3,0,4,0z"/><text class="st2"><tspan x="18" style="white-space:pre" y="22.3">v2.3</tspan></text></g><g id="135" ed:topictype="mainidea" ed:width="67" ed:layout="rightmap" ed:height="35.2" transform="matrix(1,0,0,1,525,833)"><path stroke="#f38590" fill="#f38590" stroke-linejoin="round" d="M4,0L63,0C65.7,0,67,1.3,67,4L67,31.2C67,33.9,65.7,35.2,63,35.2L4,35.2C1.3,35.2,0,33.9,0,31.2L0,4C0,1.3,1.3,0,4,0z"/><text class="st2"><tspan x="18" style="white-space:pre" y="22.3">v2.2</tspan></text></g><g id="141" ed:topictype="mainidea" ed:width="135.8" ed:layout="leftmap" ed:height="35.2" transform="matrix(1,0,0,1,71,1150)"><path stroke="#f38590" fill="#0168a5" stroke-linejoin="round" d="M4,0L131.8,0C134.5,0,135.8,1.3,135.8,4L135.8,31.2C135.8,33.9,134.5,35.2,131.8,35.2L4,35.2C1.3,35.2,0,33.9,0,31.2L0,4C0,1.3,1.3,0,4,0z"/><text class="st2"><tspan x="18" style="white-space:pre" y="22.3">master(v2.6.0)</tspan></text></g><g id="144" ed:topictype="mainidea" ed:width="150.2" ed:layout="rightmap" ed:height="35.2" transform="matrix(1,0,0,1,231,1232)"><path stroke="#f38590" fill="#674196" stroke-linejoin="round" d="M4,0L146.2,0C148.9,0,150.2,1.3,150.2,4L150.2,31.2C150.2,33.9,148.9,35.2,146.2,35.2L4,35.2C1.3,35.2,0,33.9,0,31.2L0,4C0,1.3,1.3,0,4,0z"/><text class="st2"><tspan x="18" style="white-space:pre" y="22.3">第四步：删除dev</tspan></text></g><g id="146" ed:topictype="mainidea" ed:width="79" ed:layout="map" ed:height="35.2" transform="matrix(1,0,0,1,231,1494)"><path stroke="#f38590" fill="#f38590" stroke-linejoin="round" d="M4,0L75,0C77.7,0,79,1.3,79,4L79,31.2C79,33.9,77.7,35.2,75,35.2L4,35.2C1.3,35.2,0,33.9,0,31.2L0,4C0,1.3,1.3,0,4,0z"/><text class="st2"><tspan x="18" style="white-space:pre" y="22.3">v2.5.1</tspan></text></g><g id="147" ed:topictype="mainidea" ed:width="75.8" ed:layout="leftmap" ed:height="35.2" transform="matrix(1,0,0,1,39,1437)"><path stroke="#f38590" fill="#00ae9d" stroke-linejoin="round" d="M4,0L71.8,0C74.5,0,75.8,1.3,75.8,4L75.8,31.2C75.8,33.9,74.5,35.2,71.8,35.2L4,35.2C1.3,35.2,0,33.9,0,31.2L0,4C0,1.3,1.3,0,4,0z"/><text class="st2"><tspan x="18" style="white-space:pre" y="22.3">Head</tspan></text></g><g id="148" ed:topictype="mainidea" ed:width="67" ed:layout="rightmap" ed:height="35.2" transform="matrix(1,0,0,1,356,1423)"><path stroke="#f38590" fill="#f38590" stroke-linejoin="round" d="M4,0L63,0C65.7,0,67,1.3,67,4L67,31.2C67,33.9,65.7,35.2,63,35.2L4,35.2C1.3,35.2,0,33.9,0,31.2L0,4C0,1.3,1.3,0,4,0z"/><text class="st2"><tspan x="18" style="white-space:pre" y="22.3">v2.4</tspan></text></g><g id="149" ed:topictype="mainidea" ed:width="135.8" ed:layout="leftmap" ed:height="35.2" transform="matrix(1,0,0,1,74,1544)"><path stroke="#f38590" fill="#0168a5" stroke-linejoin="round" d="M4,0L131.8,0C134.5,0,135.8,1.3,135.8,4L135.8,31.2C135.8,33.9,134.5,35.2,131.8,35.2L4,35.2C1.3,35.2,0,33.9,0,31.2L0,4C0,1.3,1.3,0,4,0z"/><text class="st2"><tspan x="18" style="white-space:pre" y="22.3">master(v2.6.0)</tspan></text></g><g id="150" ed:topictype="mainidea" ed:width="67" ed:layout="rightmap" ed:height="35.2" transform="matrix(1,0,0,1,420,1345)"><path stroke="#f38590" fill="#f38590" stroke-linejoin="round" d="M4,0L63,0C65.7,0,67,1.3,67,4L67,31.2C67,33.9,65.7,35.2,63,35.2L4,35.2C1.3,35.2,0,33.9,0,31.2L0,4C0,1.3,1.3,0,4,0z"/><text class="st2"><tspan x="18" style="white-space:pre" y="22.3">v2.3</tspan></text></g><g id="151" ed:topictype="mainidea" ed:width="67" ed:layout="rightmap" ed:height="35.2" transform="matrix(1,0,0,1,520,1302)"><path stroke="#f38590" fill="#f38590" stroke-linejoin="round" d="M4,0L63,0C65.7,0,67,1.3,67,4L67,31.2C67,33.9,65.7,35.2,63,35.2L4,35.2C1.3,35.2,0,33.9,0,31.2L0,4C0,1.3,1.3,0,4,0z"/><text class="st2"><tspan x="18" style="white-space:pre" y="22.3">v2.2</tspan></text></g><symbol id="plus"><path fill="url(#lg1)" d="M11,6C11,8.8,8.8,11,6,11C3.2,11,1,8.8,1,6C1,3.2,3.2,1,6,1C8.8,1,11,3.2,11,6z"/><path stroke-width="0.7" stroke="#46a000" fill="none" d="M11,6C11,8.8,8.8,11,6,11C3.2,11,1,8.8,1,6C1,3.2,3.2,1,6,1C8.8,1,11,3.2,11,6zM3,6L9,6M6,3L6,9"/></symbol><symbol id="minus"><path fill="url(#lg1)" d="M11,6C11,8.8,8.8,11,6,11C3.2,11,1,8.8,1,6C1,3.2,3.2,1,6,1C8.8,1,11,3.2,11,6z"/><path stroke-width="0.7" stroke="#46a000" fill="none" d="M11,6C11,8.8,8.8,11,6,11C3.2,11,1,8.8,1,6C1,3.2,3.2,1,6,1C8.8,1,11,3.2,11,6zM3,6L9,6"/></symbol></svg>